<svg width="22" height="22"   xmlns="http://www.w3.org/2000/svg" xmlns:xlink="http://www.w3.org/1999/xlink" version="1.1" x="0px" y="0px" viewBox="0 0 24 30" enable-background="new 0 0 24 24" xml:space="preserve"><g><path fill="#fff" d="M21.8,10.8h-4.9c-0.3,0-0.5,0.2-0.5,0.5s0.2,0.5,0.5,0.5h4.9c0.3,0,0.5,0.2,0.5,0.5v9.3   c0,0.3-0.2,0.5-0.5,0.5H2.2c-0.3,0-0.5-0.2-0.5-0.5v-9.3c0-0.3,0.2-0.5,0.5-0.5h4.9c0.3,0,0.5-0.2,0.5-0.5s-0.2-0.5-0.5-0.5H2.2   c-0.8,0-1.4,0.6-1.4,1.4v9.3c0,0.8,0.6,1.4,1.4,1.4h19.5c0.8,0,1.4-0.6,1.4-1.4v-9.3C23.2,11.4,22.5,10.8,21.8,10.8z"/><path fill="#fff" d="M8,6.4l3.5-3.5v14.5c0,0.3,0.2,0.5,0.5,0.5s0.5-0.2,0.5-0.5V2.9L16,6.4c0.1,0.1,0.2,0.1,0.3,0.1   s0.2,0,0.3-0.1c0.2-0.2,0.2-0.5,0-0.7L12,1.1L7.4,5.7c-0.2,0.2-0.2,0.5,0,0.7C7.6,6.5,7.9,6.5,8,6.4z"/></g><text x="0" y="39" fill="#000000" font-size="5px" font-weight="bold" font-family="'Helvetica Neue', Helvetica, Arial-Unicode, Arial, Sans-serif">Created by Iconographer</text><text x="0" y="44" fill="#000000" font-size="5px" font-weight="bold" font-family="'Helvetica Neue', Helvetica, Arial-Unicode, Arial, Sans-serif">from the Noun Project</text></svg>